<svg id="svg" version="1.1" xmlns="http://www.w3.org/2000/svg" xmlns:xlink="http://www.w3.org/1999/xlink" width="400" height="400" viewBox="0, 0, 400,400"><g id="svgg"><path id="path0" d="M287.400 24.250 C 272.477 24.892,261.914 25.863,248.600 27.819 C 239.539 29.150,235.146 29.914,224.600 31.993 C 215.258 33.835,199.507 37.626,191.400 39.985 C 179.187 43.538,174.614 44.960,167.200 47.511 C 160.944 49.663,148.491 54.437,144.600 56.174 C 143.280 56.763,141.840 57.401,141.400 57.590 C 139.032 58.610,127.032 64.580,124.800 65.849 C 100.264 79.796,71.680 110.004,55.862 138.704 C 53.134 143.654,53.105 142.961,56.100 144.360 C 66.922 149.418,71.872 163.197,66.602 173.595 C 61.905 182.865,49.765 188.040,40.522 184.713 C 38.483 183.979,38.624 183.732,37.619 189.800 C 34.360 209.470,34.711 226.305,38.804 246.571 C 40.235 253.653,44.231 266.892,46.421 271.800 C 46.617 272.240,47.151 273.572,47.607 274.760 C 62.458 313.463,100.598 350.630,140.800 365.576 C 143.330 366.517,145.760 367.442,146.200 367.632 C 147.527 368.206,156.320 370.688,160.800 371.753 C 191.238 378.993,227.443 375.968,258.200 363.615 C 291.482 350.247,319.530 329.639,341.245 302.600 C 347.334 295.017,353.358 285.227,352.644 284.072 C 352.524 283.876,351.359 283.605,350.056 283.469 C 341.343 282.558,333.990 275.622,331.830 266.275 C 329.318 255.407,335.503 245.105,346.800 241.343 C 348.010 240.940,349.057 240.581,349.128 240.544 C 349.369 240.419,346.181 233.617,339.497 220.000 C 328.948 198.507,325.056 188.302,321.649 173.200 C 314.666 142.244,321.841 105.804,342.008 69.800 C 356.019 44.787,347.331 30.895,314.400 25.654 C 308.927 24.784,293.572 23.985,287.400 24.250 M301.429 42.222 C 316.227 47.053,321.377 65.922,310.968 77.166 C 297.251 91.981,273.288 82.480,273.219 62.200 C 273.172 48.261,287.924 37.814,301.429 42.222 M281.800 76.800 C 282.659 77.680,283.452 78.400,283.562 78.400 C 283.672 78.400,283.059 77.680,282.200 76.800 C 281.341 75.920,280.548 75.200,280.438 75.200 C 280.328 75.200,280.941 75.920,281.800 76.800 M293.118 127.719 C 296.825 129.743,297.140 135.994,293.666 138.600 C 292.001 139.850,144.883 140.067,142.445 138.823 C 137.886 136.497,139.011 128.036,144.005 127.093 C 147.546 126.424,291.856 127.031,293.118 127.719 M165.400 129.496 C 219.431 129.764,291.876 129.770,291.462 129.506 C 291.208 129.344,258.060 129.253,217.800 129.302 C 177.540 129.352,153.960 129.439,165.400 129.496 M144.741 137.301 C 144.907 137.467,177.793 137.557,217.821 137.501 L 290.600 137.400 217.520 137.200 C 177.326 137.090,144.575 137.135,144.741 137.301 M46.305 145.083 C 46.802 145.179,47.522 145.175,47.905 145.075 C 48.287 144.975,47.880 144.896,47.000 144.901 C 46.120 144.905,45.807 144.987,46.305 145.083 M33.381 150.900 L 31.800 152.600 33.500 151.019 C 35.081 149.548,35.384 149.200,35.081 149.200 C 35.016 149.200,34.251 149.965,33.381 150.900 M66.093 163.600 C 66.093 164.370,66.175 164.685,66.276 164.300 C 66.376 163.915,66.376 163.285,66.276 162.900 C 66.175 162.515,66.093 162.830,66.093 163.600 M60.800 177.000 C 59.828 177.990,59.123 178.800,59.233 178.800 C 59.343 178.800,60.228 177.990,61.200 177.000 C 62.172 176.010,62.877 175.200,62.767 175.200 C 62.657 175.200,61.772 176.010,60.800 177.000 M34.000 177.800 C 34.746 178.570,35.447 179.200,35.557 179.200 C 35.667 179.200,35.146 178.570,34.400 177.800 C 33.654 177.030,32.953 176.400,32.843 176.400 C 32.733 176.400,33.254 177.030,34.000 177.800 M46.105 183.487 C 46.714 183.579,47.614 183.577,48.105 183.482 C 48.597 183.387,48.100 183.311,47.000 183.314 C 45.900 183.317,45.497 183.395,46.105 183.487 M251.100 189.662 C 254.757 191.922,254.771 198.163,251.123 200.392 C 249.806 201.197,249.445 201.200,176.532 201.100 L 103.264 201.000 102.194 200.000 C 98.749 196.781,99.550 190.563,103.600 189.082 C 103.930 188.962,136.939 188.849,176.953 188.832 L 249.706 188.800 251.100 189.662 M251.000 195.000 C 251.000 195.948,251.135 196.640,251.300 196.538 C 251.465 196.436,251.600 195.744,251.600 195.000 C 251.600 194.256,251.465 193.564,251.300 193.462 C 251.135 193.360,251.000 194.052,251.000 195.000 M338.800 249.000 C 337.828 249.990,337.123 250.800,337.233 250.800 C 337.343 250.800,338.228 249.990,339.200 249.000 C 340.172 248.010,340.877 247.200,340.767 247.200 C 340.657 247.200,339.772 248.010,338.800 249.000 M364.800 247.325 C 364.800 247.394,365.385 247.979,366.100 248.625 L 367.400 249.800 366.225 248.500 C 365.130 247.288,364.800 247.016,364.800 247.325 M293.419 252.000 C 296.304 254.662,296.304 259.338,293.419 262.000 L 292.336 263.000 216.800 263.000 L 141.264 263.000 140.194 262.000 C 136.748 258.780,137.548 252.573,141.600 251.081 C 141.930 250.959,175.981 250.891,217.268 250.930 L 292.336 251.000 293.419 252.000 M355.058 258.000 C 355.375 259.725,355.602 260.051,355.594 258.767 C 355.591 258.235,355.411 257.530,355.194 257.200 C 354.918 256.778,354.877 257.015,355.058 258.000 M358.557 268.000 C 358.557 270.970,358.620 272.185,358.697 270.700 C 358.774 269.215,358.774 266.785,358.697 265.300 C 358.620 263.815,358.557 265.030,358.557 268.000 M356.142 267.800 C 356.141 269.780,356.208 270.640,356.292 269.712 C 356.376 268.784,356.377 267.164,356.295 266.112 C 356.212 265.060,356.143 265.820,356.142 267.800 M371.422 265.822 C 371.272 266.625,371.228 267.362,371.326 267.460 C 371.424 267.557,371.627 266.981,371.778 266.178 C 371.928 265.375,371.972 264.638,371.874 264.540 C 371.776 264.443,371.573 265.019,371.422 265.822 M366.181 275.300 L 364.600 277.000 366.300 275.419 C 367.881 273.948,368.184 273.600,367.881 273.600 C 367.816 273.600,367.051 274.365,366.181 275.300 M338.400 274.525 C 338.400 274.594,338.985 275.179,339.700 275.825 L 341.000 277.000 339.825 275.700 C 338.730 274.488,338.400 274.216,338.400 274.525 M355.246 276.467 C 355.221 276.834,355.096 277.464,354.970 277.867 C 354.752 278.562,354.763 278.563,355.197 277.887 C 355.448 277.496,355.573 276.866,355.473 276.487 C 355.311 275.868,355.288 275.866,355.246 276.467 M350.421 281.221 C 350.955 281.560,353.942 281.781,353.567 281.455 C 353.475 281.375,352.599 281.208,351.621 281.082 C 350.470 280.935,350.046 280.984,350.421 281.221 M181.475 317.831 C 198.122 321.684,204.271 342.289,192.291 354.080 C 179.799 366.375,159.895 360.547,155.800 343.395 C 152.248 328.515,166.468 314.357,181.475 317.831 M176.105 319.887 C 176.714 319.979,177.614 319.977,178.105 319.882 C 178.597 319.787,178.100 319.711,177.000 319.714 C 175.900 319.717,175.497 319.795,176.105 319.887 M190.800 351.800 C 189.828 352.790,189.123 353.600,189.233 353.600 C 189.343 353.600,190.228 352.790,191.200 351.800 C 192.172 350.810,192.877 350.000,192.767 350.000 C 192.657 350.000,191.772 350.810,190.800 351.800 M175.900 358.282 C 176.395 358.378,177.205 358.378,177.700 358.282 C 178.195 358.187,177.790 358.109,176.800 358.109 C 175.810 358.109,175.405 358.187,175.900 358.282 " stroke="none" fill="#232363" fill-rule="evenodd"></path><path id="path1" d="M291.600 44.384 C 291.270 44.606,290.677 44.791,290.283 44.794 C 287.011 44.822,279.934 50.553,277.926 54.800 C 273.216 64.765,278.285 76.574,289.000 80.597 C 291.490 81.532,297.889 81.670,300.000 80.834 C 303.697 79.371,304.898 78.682,307.728 76.400 C 312.304 72.711,314.913 63.320,312.841 58.000 C 310.016 50.748,305.734 46.442,299.600 44.684 C 297.587 44.107,292.306 43.909,291.600 44.384 M143.429 130.609 C 142.370 131.410,142.294 134.864,143.314 135.885 C 144.468 137.040,291.081 136.993,292.358 135.838 C 293.567 134.743,293.522 132.042,292.274 130.870 L 291.348 130.000 217.774 130.013 C 153.957 130.024,144.098 130.103,143.429 130.609 M52.115 146.500 C 51.476 147.335,49.338 152.021,47.397 156.839 C 46.387 159.348,45.400 161.760,45.204 162.200 C 44.696 163.340,42.214 170.956,41.423 173.800 C 41.056 175.120,40.601 176.740,40.411 177.400 C 39.248 181.442,39.433 181.701,44.025 182.459 C 46.918 182.937,51.804 182.519,53.496 181.650 C 53.883 181.451,54.920 180.954,55.800 180.544 C 60.781 178.227,66.000 170.212,66.000 164.880 C 66.000 158.463,61.005 149.965,55.757 147.456 C 54.900 147.046,53.887 146.551,53.505 146.356 C 52.615 145.900,52.571 145.904,52.115 146.500 M103.816 192.696 C 102.492 194.124,102.478 195.936,103.781 197.342 L 104.762 198.400 176.692 198.400 C 255.498 198.400,249.842 198.577,250.713 196.078 C 251.194 194.699,250.468 192.678,249.259 192.031 C 248.691 191.727,227.245 191.600,176.642 191.600 L 104.832 191.600 103.816 192.696 M347.928 243.992 C 341.551 245.917,336.248 251.407,334.580 257.814 C 332.031 267.597,339.787 278.858,350.186 280.475 C 353.757 281.030,353.820 280.992,354.569 277.771 C 356.553 269.251,356.239 261.942,353.498 252.800 C 352.839 250.604,351.946 247.876,351.598 247.000 C 351.424 246.560,351.061 245.615,350.792 244.900 C 350.286 243.556,349.842 243.415,347.928 243.992 M141.781 254.658 C 141.164 255.325,140.800 256.192,140.800 257.000 C 140.800 257.808,141.164 258.675,141.781 259.342 L 142.762 260.400 216.692 260.400 C 297.793 260.400,292.024 260.580,292.533 258.034 C 292.867 256.365,292.095 254.416,290.925 253.971 C 290.337 253.748,260.676 253.600,216.355 253.600 L 142.762 253.600 141.781 254.658 M173.470 320.612 C 159.170 323.729,153.489 339.782,162.729 350.963 C 164.195 352.737,168.177 355.958,168.940 355.987 C 169.126 355.994,169.846 356.254,170.540 356.564 C 176.477 359.223,184.280 357.486,189.882 352.258 C 200.807 342.063,195.130 323.710,180.077 320.560 C 177.009 319.918,176.639 319.921,173.470 320.612 " stroke="none" fill="#fafafa" fill-rule="evenodd"></path><path id="path2" d="M42.800 145.655 C 33.363 148.234,26.961 157.297,28.394 166.051 C 29.383 172.100,36.031 181.903,36.972 178.700 C 37.053 178.425,37.602 176.400,38.192 174.200 C 39.879 167.912,43.472 157.691,45.785 152.600 C 46.085 151.940,46.886 150.180,47.565 148.690 C 48.244 147.199,48.800 145.804,48.800 145.590 C 48.800 145.100,44.668 145.144,42.800 145.655 M353.600 243.338 C 353.600 243.413,354.220 245.277,354.978 247.480 C 359.015 259.214,359.909 271.138,357.364 279.300 C 356.664 281.546,362.478 278.732,366.232 275.009 C 376.455 264.869,371.588 247.520,357.465 243.759 C 355.520 243.241,353.600 243.032,353.600 243.338 " stroke="none" fill="#da3373" fill-rule="evenodd"></path><path id="path3" d="M274.500 21.470 C 271.710 21.558,269.600 21.792,269.600 22.012 C 269.600 22.234,268.057 22.400,266.000 22.400 C 264.020 22.400,262.400 22.555,262.400 22.744 C 262.400 22.933,260.015 23.216,257.100 23.372 C 254.185 23.529,251.740 23.825,251.667 24.029 C 251.593 24.233,250.378 24.400,248.967 24.400 C 247.555 24.400,246.400 24.561,246.400 24.757 C 246.400 24.953,244.600 25.243,242.400 25.400 C 240.200 25.557,238.400 25.847,238.400 26.043 C 238.400 26.239,237.500 26.400,236.400 26.400 C 235.300 26.400,234.400 26.566,234.400 26.770 C 234.400 26.973,232.780 27.267,230.800 27.422 C 228.820 27.576,227.200 27.860,227.200 28.052 C 227.200 28.243,226.390 28.400,225.400 28.400 C 224.410 28.400,223.600 28.559,223.600 28.753 C 223.600 28.947,222.250 29.233,220.600 29.387 C 218.950 29.542,217.600 29.833,217.600 30.034 C 217.600 30.235,216.880 30.400,216.000 30.400 C 215.120 30.400,214.400 30.565,214.400 30.766 C 214.400 30.967,213.050 31.258,211.400 31.413 C 209.750 31.567,208.400 31.853,208.400 32.047 C 208.400 32.241,207.770 32.400,207.000 32.400 C 206.230 32.400,205.600 32.566,205.600 32.768 C 205.600 32.971,204.430 33.262,203.000 33.415 C 201.570 33.568,200.400 33.852,200.400 34.047 C 200.400 34.241,199.770 34.400,199.000 34.400 C 198.230 34.400,197.600 34.559,197.600 34.754 C 197.600 34.949,196.610 35.232,195.400 35.383 C 194.190 35.534,193.200 35.825,193.200 36.029 C 193.200 36.233,192.570 36.400,191.800 36.400 C 191.030 36.400,190.400 36.571,190.400 36.780 C 190.400 36.989,189.320 37.282,188.000 37.432 C 186.680 37.581,185.600 37.860,185.600 38.052 C 185.600 38.243,185.150 38.400,184.600 38.400 C 184.050 38.400,183.600 38.559,183.600 38.754 C 183.600 38.949,182.610 39.232,181.400 39.383 C 180.190 39.534,179.200 39.825,179.200 40.029 C 179.200 40.233,178.750 40.400,178.200 40.400 C 177.650 40.400,177.200 40.563,177.200 40.762 C 177.200 40.962,176.300 41.249,175.200 41.400 C 174.100 41.551,173.200 41.838,173.200 42.038 C 173.200 42.237,172.570 42.400,171.800 42.400 C 171.030 42.400,170.400 42.557,170.400 42.749 C 170.400 42.941,169.680 43.213,168.800 43.354 C 167.920 43.494,167.200 43.787,167.200 44.005 C 167.200 44.222,166.750 44.400,166.200 44.400 C 165.650 44.400,165.200 44.563,165.200 44.762 C 165.200 44.962,164.300 45.249,163.200 45.400 C 162.100 45.551,161.200 45.838,161.200 46.038 C 161.200 46.237,160.750 46.400,160.200 46.400 C 159.650 46.400,159.200 46.560,159.200 46.755 C 159.200 46.950,158.390 47.231,157.400 47.379 C 156.410 47.528,155.600 47.818,155.600 48.025 C 155.600 48.231,155.150 48.400,154.600 48.400 C 154.050 48.400,153.600 48.578,153.600 48.795 C 153.600 49.013,152.880 49.306,152.000 49.446 C 151.120 49.587,150.400 49.859,150.400 50.051 C 150.400 50.243,150.130 50.400,149.800 50.400 C 149.470 50.400,149.200 50.560,149.200 50.755 C 149.200 50.950,148.390 51.231,147.400 51.379 C 146.410 51.528,145.600 51.818,145.600 52.025 C 145.600 52.231,145.150 52.400,144.600 52.400 C 144.050 52.400,143.600 52.566,143.600 52.768 C 143.600 52.971,143.060 53.255,142.400 53.400 C 141.740 53.545,141.200 53.829,141.200 54.032 C 141.200 54.234,140.840 54.400,140.400 54.400 C 139.960 54.400,139.600 54.557,139.600 54.749 C 139.600 54.941,138.880 55.213,138.000 55.354 C 137.120 55.494,136.400 55.787,136.400 56.005 C 136.400 56.222,136.130 56.400,135.800 56.400 C 135.470 56.400,135.200 56.560,135.200 56.755 C 135.200 56.951,134.570 57.229,133.800 57.374 C 133.030 57.518,132.400 57.808,132.400 58.018 C 132.400 58.228,132.130 58.400,131.800 58.400 C 131.470 58.400,131.200 58.560,131.200 58.755 C 131.200 58.951,130.570 59.229,129.800 59.374 C 129.030 59.518,128.400 59.808,128.400 60.018 C 128.400 60.228,128.130 60.400,127.800 60.400 C 127.470 60.400,127.200 60.560,127.200 60.755 C 127.200 60.951,126.570 61.229,125.800 61.374 C 125.030 61.518,124.400 61.808,124.400 62.018 C 124.400 62.228,124.130 62.400,123.800 62.400 C 123.470 62.400,123.200 62.577,123.200 62.792 C 123.200 63.008,122.750 63.298,122.200 63.436 C 121.650 63.574,121.200 63.847,121.200 64.043 C 121.200 64.240,120.859 64.400,120.443 64.400 C 120.026 64.400,119.582 64.670,119.455 65.000 C 119.329 65.330,118.859 65.600,118.413 65.600 C 117.966 65.600,117.600 65.780,117.600 66.000 C 117.600 66.220,117.330 66.400,117.000 66.400 C 116.670 66.400,116.400 66.568,116.400 66.773 C 116.400 66.978,115.995 67.274,115.500 67.430 C 115.005 67.587,114.330 68.023,114.000 68.400 C 113.670 68.777,113.004 69.211,112.520 69.363 C 112.037 69.516,111.530 69.992,111.394 70.420 C 111.257 70.849,110.823 71.200,110.429 71.200 C 110.035 71.200,109.374 71.650,108.961 72.200 C 108.548 72.750,107.990 73.200,107.721 73.200 C 107.451 73.200,106.518 73.920,105.647 74.800 C 104.776 75.680,103.869 76.400,103.631 76.400 C 103.394 76.400,103.200 76.568,103.200 76.773 C 103.200 76.978,102.849 77.257,102.420 77.394 C 101.992 77.530,101.533 77.983,101.400 78.400 C 101.267 78.817,100.774 79.281,100.304 79.430 C 99.834 79.580,97.949 81.209,96.115 83.051 C 94.281 84.893,92.612 86.400,92.406 86.400 C 91.916 86.400,84.400 93.916,84.400 94.406 C 84.400 94.612,82.893 96.281,81.051 98.115 C 79.209 99.949,77.580 101.834,77.430 102.304 C 77.281 102.774,76.817 103.267,76.400 103.400 C 75.983 103.533,75.533 103.983,75.400 104.400 C 75.267 104.817,74.808 105.270,74.380 105.406 C 73.951 105.543,73.600 105.937,73.600 106.284 C 73.600 106.630,73.060 107.429,72.400 108.060 C 71.740 108.691,71.200 109.433,71.200 109.709 C 71.200 109.984,70.750 110.548,70.200 110.961 C 69.650 111.374,69.200 112.035,69.200 112.429 C 69.200 112.823,68.849 113.257,68.420 113.394 C 67.992 113.530,67.520 114.021,67.373 114.487 C 67.225 114.952,66.676 115.761,66.152 116.284 C 65.628 116.808,65.200 117.455,65.200 117.723 C 65.200 117.991,64.750 118.548,64.200 118.961 C 63.650 119.374,63.200 120.035,63.200 120.429 C 63.200 120.823,62.840 121.260,62.400 121.400 C 61.958 121.540,61.600 122.005,61.600 122.440 C 61.600 122.872,61.330 123.329,61.000 123.455 C 60.670 123.582,60.400 124.007,60.400 124.400 C 60.400 124.793,60.130 125.218,59.800 125.345 C 59.470 125.471,59.200 125.941,59.200 126.387 C 59.200 126.834,59.020 127.200,58.800 127.200 C 58.580 127.200,58.400 127.470,58.400 127.800 C 58.400 128.130,58.232 128.400,58.027 128.400 C 57.822 128.400,57.526 128.805,57.370 129.300 C 57.213 129.795,56.763 130.481,56.370 130.824 C 55.976 131.167,55.532 131.932,55.383 132.524 C 55.235 133.116,54.953 133.600,54.757 133.600 C 54.560 133.600,54.400 133.941,54.400 134.357 C 54.400 134.774,54.130 135.218,53.800 135.345 C 53.470 135.471,53.200 135.941,53.200 136.387 C 53.200 136.834,53.020 137.200,52.800 137.200 C 52.580 137.200,52.400 137.470,52.400 137.800 C 52.400 138.130,52.234 138.400,52.032 138.400 C 51.829 138.400,51.537 138.985,51.382 139.700 C 51.000 141.461,50.701 141.587,46.900 141.594 C 44.971 141.597,43.600 141.766,43.600 142.000 C 43.600 142.220,42.880 142.400,42.000 142.400 C 41.120 142.400,40.400 142.557,40.400 142.749 C 40.400 142.941,39.680 143.213,38.800 143.354 C 37.920 143.494,37.200 143.787,37.200 144.005 C 37.200 144.222,36.859 144.400,36.443 144.400 C 36.026 144.400,35.582 144.670,35.455 145.000 C 35.329 145.330,34.872 145.600,34.440 145.600 C 34.007 145.600,33.543 145.951,33.406 146.380 C 33.270 146.808,32.817 147.267,32.400 147.400 C 31.983 147.533,31.533 147.983,31.400 148.400 C 31.267 148.817,30.817 149.267,30.400 149.400 C 29.983 149.533,29.530 149.992,29.394 150.420 C 29.257 150.849,28.978 151.200,28.773 151.200 C 28.568 151.200,28.400 151.470,28.400 151.800 C 28.400 152.130,28.223 152.400,28.008 152.400 C 27.792 152.400,27.502 152.850,27.364 153.400 C 27.226 153.950,26.953 154.400,26.757 154.400 C 26.560 154.400,26.400 154.835,26.400 155.367 C 26.400 155.898,26.175 156.408,25.900 156.500 C 25.180 156.740,25.180 170.460,25.900 170.700 C 26.175 170.792,26.400 171.302,26.400 171.833 C 26.400 172.365,26.557 172.800,26.750 172.800 C 26.942 172.800,27.213 173.364,27.351 174.054 C 27.489 174.743,27.935 175.598,28.344 175.954 C 28.752 176.309,29.211 176.996,29.363 177.480 C 29.516 177.963,29.983 178.467,30.400 178.600 C 30.817 178.733,31.267 179.183,31.400 179.600 C 31.533 180.017,31.983 180.467,32.400 180.600 C 32.817 180.733,33.270 181.191,33.406 181.620 C 33.542 182.048,34.047 182.497,34.528 182.618 C 35.432 182.844,35.649 186.400,34.760 186.400 C 34.562 186.400,34.400 187.285,34.400 188.367 C 34.400 189.448,34.231 190.393,34.025 190.467 C 33.818 190.540,33.522 193.075,33.366 196.100 C 33.211 199.125,32.930 201.600,32.742 201.600 C 32.554 201.600,32.400 207.630,32.400 215.000 C 32.400 222.370,32.554 228.400,32.742 228.400 C 32.929 228.400,33.210 230.695,33.364 233.500 C 33.519 236.305,33.815 238.660,34.023 238.733 C 34.230 238.807,34.400 239.752,34.400 240.833 C 34.400 241.915,34.559 242.800,34.753 242.800 C 34.947 242.800,35.233 244.330,35.389 246.200 C 35.544 248.070,35.836 249.600,36.036 249.600 C 36.236 249.600,36.400 250.230,36.400 251.000 C 36.400 251.770,36.566 252.400,36.768 252.400 C 36.971 252.400,37.262 253.570,37.415 255.000 C 37.568 256.430,37.852 257.600,38.047 257.600 C 38.241 257.600,38.400 258.230,38.400 259.000 C 38.400 259.770,38.563 260.400,38.762 260.400 C 38.962 260.400,39.249 261.300,39.400 262.400 C 39.551 263.500,39.838 264.400,40.038 264.400 C 40.237 264.400,40.400 264.850,40.400 265.400 C 40.400 265.950,40.563 266.400,40.762 266.400 C 40.962 266.400,41.249 267.300,41.400 268.400 C 41.551 269.500,41.838 270.400,42.038 270.400 C 42.237 270.400,42.400 270.670,42.400 271.000 C 42.400 271.330,42.557 271.600,42.749 271.600 C 42.941 271.600,43.213 272.320,43.354 273.200 C 43.494 274.080,43.787 274.800,44.005 274.800 C 44.222 274.800,44.400 275.250,44.400 275.800 C 44.400 276.350,44.560 276.800,44.755 276.800 C 44.951 276.800,45.229 277.430,45.374 278.200 C 45.518 278.970,45.808 279.600,46.018 279.600 C 46.228 279.600,46.400 280.050,46.400 280.600 C 46.400 281.150,46.572 281.600,46.782 281.600 C 46.992 281.600,47.282 282.230,47.426 283.000 C 47.571 283.770,47.849 284.400,48.045 284.400 C 48.240 284.400,48.400 284.670,48.400 285.000 C 48.400 285.330,48.572 285.600,48.782 285.600 C 48.992 285.600,49.282 286.230,49.426 287.000 C 49.571 287.770,49.849 288.400,50.045 288.400 C 50.240 288.400,50.400 288.670,50.400 289.000 C 50.400 289.330,50.572 289.600,50.782 289.600 C 50.992 289.600,51.281 290.224,51.424 290.986 C 51.578 291.809,51.975 292.465,52.400 292.600 C 52.825 292.735,53.222 293.391,53.376 294.214 C 53.519 294.976,53.808 295.600,54.018 295.600 C 54.228 295.600,54.400 295.870,54.400 296.200 C 54.400 296.530,54.577 296.800,54.792 296.800 C 55.008 296.800,55.298 297.250,55.436 297.800 C 55.574 298.350,55.847 298.800,56.043 298.800 C 56.240 298.800,56.400 299.141,56.400 299.557 C 56.400 299.974,56.670 300.418,57.000 300.545 C 57.330 300.671,57.600 301.128,57.600 301.560 C 57.600 301.995,57.958 302.460,58.400 302.600 C 58.842 302.740,59.200 303.205,59.200 303.640 C 59.200 304.072,59.470 304.529,59.800 304.655 C 60.130 304.782,60.400 305.207,60.400 305.600 C 60.400 305.993,60.670 306.418,61.000 306.545 C 61.330 306.671,61.600 307.128,61.600 307.560 C 61.600 307.995,61.958 308.460,62.400 308.600 C 62.840 308.740,63.200 309.177,63.200 309.571 C 63.200 309.965,63.650 310.626,64.200 311.039 C 64.750 311.452,65.200 312.009,65.200 312.277 C 65.200 312.545,65.628 313.192,66.152 313.716 C 66.676 314.239,67.225 315.048,67.373 315.513 C 67.520 315.979,67.983 316.467,68.400 316.600 C 68.817 316.733,69.280 317.222,69.428 317.688 C 69.576 318.154,70.575 319.413,71.648 320.486 C 72.722 321.560,73.600 322.604,73.600 322.806 C 73.600 323.295,87.931 337.600,88.422 337.600 C 88.632 337.600,89.685 338.500,90.762 339.600 C 91.839 340.700,92.919 341.600,93.160 341.600 C 93.402 341.600,93.600 341.768,93.600 341.973 C 93.600 342.178,93.951 342.457,94.380 342.594 C 94.808 342.730,95.270 343.192,95.406 343.620 C 95.543 344.049,95.937 344.400,96.284 344.400 C 96.630 344.400,97.429 344.940,98.060 345.600 C 98.691 346.260,99.409 346.800,99.657 346.800 C 99.904 346.800,100.397 347.134,100.753 347.543 C 101.109 347.951,101.796 348.411,102.280 348.563 C 102.763 348.716,103.270 349.192,103.406 349.620 C 103.543 350.049,104.007 350.400,104.440 350.400 C 104.872 350.400,105.329 350.670,105.455 351.000 C 105.582 351.330,106.007 351.600,106.400 351.600 C 106.793 351.600,107.218 351.870,107.345 352.200 C 107.471 352.530,107.928 352.800,108.360 352.800 C 108.793 352.800,109.254 353.139,109.385 353.552 C 109.523 353.987,110.149 354.410,110.866 354.553 C 111.549 354.690,112.398 355.135,112.754 355.544 C 113.109 355.952,113.850 356.427,114.400 356.600 C 114.950 356.773,115.691 357.248,116.046 357.656 C 116.402 358.065,117.257 358.511,117.946 358.649 C 118.636 358.787,119.200 359.058,119.200 359.250 C 119.200 359.443,119.470 359.600,119.800 359.600 C 120.130 359.600,120.400 359.760,120.400 359.957 C 120.400 360.153,120.850 360.426,121.400 360.564 C 121.950 360.702,122.400 360.992,122.400 361.208 C 122.400 361.423,122.670 361.600,123.000 361.600 C 123.330 361.600,123.600 361.760,123.600 361.955 C 123.600 362.151,124.230 362.429,125.000 362.574 C 125.770 362.718,126.400 363.008,126.400 363.218 C 126.400 363.428,126.670 363.600,127.000 363.600 C 127.330 363.600,127.600 363.760,127.600 363.955 C 127.600 364.150,128.410 364.431,129.400 364.579 C 130.390 364.728,131.200 365.018,131.200 365.225 C 131.200 365.431,131.470 365.600,131.800 365.600 C 132.130 365.600,132.400 365.778,132.400 365.995 C 132.400 366.213,133.120 366.506,134.000 366.646 C 134.880 366.787,135.600 367.059,135.600 367.251 C 135.600 367.443,135.960 367.600,136.400 367.600 C 136.840 367.600,137.200 367.763,137.200 367.962 C 137.200 368.162,138.100 368.449,139.200 368.600 C 140.300 368.751,141.200 369.038,141.200 369.238 C 141.200 369.437,141.470 369.600,141.800 369.600 C 142.130 369.600,142.400 369.763,142.400 369.962 C 142.400 370.162,143.300 370.449,144.400 370.600 C 145.500 370.751,146.400 371.038,146.400 371.238 C 146.400 371.437,146.850 371.600,147.400 371.600 C 147.950 371.600,148.400 371.757,148.400 371.948 C 148.400 372.140,149.480 372.419,150.800 372.568 C 152.120 372.718,153.200 373.011,153.200 373.220 C 153.200 373.429,153.740 373.600,154.400 373.600 C 155.060 373.600,155.600 373.762,155.600 373.959 C 155.600 374.157,156.860 374.445,158.400 374.600 C 159.940 374.755,161.200 375.043,161.200 375.241 C 161.200 375.438,161.920 375.600,162.800 375.600 C 163.680 375.600,164.400 375.766,164.400 375.970 C 164.400 376.173,166.020 376.467,168.000 376.622 C 169.980 376.776,171.600 377.060,171.600 377.252 C 171.600 377.443,172.845 377.600,174.367 377.600 C 176.224 377.600,177.188 377.764,177.300 378.100 C 177.430 378.490,181.489 378.600,195.800 378.600 C 210.111 378.600,214.170 378.490,214.300 378.100 C 214.410 377.769,215.336 377.600,217.033 377.600 C 218.445 377.600,219.600 377.439,219.600 377.243 C 219.600 377.047,221.400 376.757,223.600 376.600 C 225.800 376.443,227.600 376.153,227.600 375.957 C 227.600 375.761,228.320 375.600,229.200 375.600 C 230.080 375.600,230.800 375.446,230.800 375.257 C 230.800 375.069,232.105 374.794,233.700 374.646 C 235.295 374.499,236.660 374.203,236.733 373.989 C 236.807 373.775,237.482 373.600,238.233 373.600 C 238.985 373.600,239.600 373.429,239.600 373.220 C 239.600 373.011,240.680 372.718,242.000 372.568 C 243.320 372.419,244.400 372.140,244.400 371.948 C 244.400 371.757,244.850 371.600,245.400 371.600 C 245.950 371.600,246.400 371.433,246.400 371.229 C 246.400 371.025,247.390 370.734,248.600 370.583 C 249.810 370.432,250.800 370.149,250.800 369.954 C 250.800 369.759,251.250 369.600,251.800 369.600 C 252.350 369.600,252.800 369.431,252.800 369.225 C 252.800 369.018,253.610 368.728,254.600 368.579 C 255.590 368.431,256.400 368.150,256.400 367.955 C 256.400 367.760,256.850 367.600,257.400 367.600 C 257.950 367.600,258.400 367.422,258.400 367.205 C 258.400 366.987,259.120 366.694,260.000 366.554 C 260.880 366.413,261.600 366.141,261.600 365.949 C 261.600 365.757,261.870 365.600,262.200 365.600 C 262.530 365.600,262.800 365.440,262.800 365.245 C 262.800 365.050,263.610 364.769,264.600 364.621 C 265.590 364.472,266.400 364.182,266.400 363.975 C 266.400 363.769,266.670 363.600,267.000 363.600 C 267.330 363.600,267.600 363.443,267.600 363.251 C 267.600 363.059,268.320 362.787,269.200 362.646 C 270.080 362.506,270.800 362.213,270.800 361.995 C 270.800 361.778,271.160 361.600,271.600 361.600 C 272.040 361.600,272.400 361.434,272.400 361.232 C 272.400 361.029,272.940 360.745,273.600 360.600 C 274.260 360.455,274.800 360.171,274.800 359.968 C 274.800 359.766,275.160 359.600,275.600 359.600 C 276.040 359.600,276.400 359.434,276.400 359.232 C 276.400 359.029,276.940 358.745,277.600 358.600 C 278.260 358.455,278.800 358.171,278.800 357.968 C 278.800 357.766,279.160 357.600,279.600 357.600 C 280.040 357.600,280.400 357.434,280.400 357.232 C 280.400 357.029,280.940 356.745,281.600 356.600 C 282.260 356.455,282.800 356.171,282.800 355.968 C 282.800 355.766,283.141 355.600,283.557 355.600 C 283.974 355.600,284.418 355.330,284.545 355.000 C 284.671 354.670,285.141 354.400,285.587 354.400 C 286.034 354.400,286.400 354.220,286.400 354.000 C 286.400 353.780,286.670 353.600,287.000 353.600 C 287.330 353.600,287.600 353.440,287.600 353.243 C 287.600 353.047,288.050 352.774,288.600 352.636 C 289.150 352.498,289.600 352.208,289.600 351.992 C 289.600 351.777,289.870 351.600,290.200 351.600 C 290.530 351.600,290.800 351.420,290.800 351.200 C 290.800 350.980,291.166 350.800,291.613 350.800 C 292.059 350.800,292.529 350.530,292.655 350.200 C 292.782 349.870,293.207 349.600,293.600 349.600 C 293.993 349.600,294.418 349.330,294.545 349.000 C 294.671 348.670,295.128 348.400,295.560 348.400 C 295.995 348.400,296.460 348.042,296.600 347.600 C 296.740 347.158,297.205 346.800,297.640 346.800 C 298.072 346.800,298.529 346.530,298.655 346.200 C 298.782 345.870,299.207 345.600,299.600 345.600 C 299.993 345.600,300.418 345.330,300.545 345.000 C 300.671 344.670,301.128 344.400,301.560 344.400 C 301.995 344.400,302.460 344.042,302.600 343.600 C 302.740 343.160,303.177 342.800,303.571 342.800 C 303.965 342.800,304.626 342.350,305.039 341.800 C 305.452 341.250,306.009 340.800,306.277 340.800 C 306.545 340.800,307.192 340.372,307.716 339.848 C 308.239 339.324,309.048 338.775,309.513 338.627 C 309.979 338.480,310.470 338.008,310.606 337.580 C 310.743 337.151,311.137 336.800,311.484 336.800 C 311.830 336.800,312.629 336.260,313.260 335.600 C 313.891 334.940,314.596 334.400,314.826 334.400 C 315.057 334.400,316.108 333.500,317.163 332.400 C 318.217 331.300,319.365 330.400,319.713 330.400 C 320.061 330.400,320.457 330.049,320.594 329.620 C 320.730 329.192,321.183 328.733,321.600 328.600 C 322.017 328.467,322.467 328.017,322.600 327.600 C 322.733 327.183,323.183 326.733,323.600 326.600 C 324.017 326.467,324.467 326.017,324.600 325.600 C 324.733 325.183,325.183 324.733,325.600 324.600 C 326.017 324.467,326.467 324.017,326.600 323.600 C 326.733 323.183,327.183 322.733,327.600 322.600 C 328.017 322.467,328.467 322.017,328.600 321.600 C 328.733 321.183,329.183 320.733,329.600 320.600 C 330.017 320.467,330.467 320.017,330.600 319.600 C 330.733 319.183,331.183 318.733,331.600 318.600 C 332.017 318.467,332.467 318.017,332.600 317.600 C 332.733 317.183,333.183 316.733,333.600 316.600 C 334.017 316.467,334.467 316.017,334.600 315.600 C 334.733 315.183,335.183 314.733,335.600 314.600 C 336.017 314.467,336.467 314.017,336.600 313.600 C 336.733 313.183,337.183 312.733,337.600 312.600 C 338.017 312.467,338.483 311.968,338.635 311.490 C 338.787 311.012,339.696 309.858,340.655 308.925 C 341.615 307.993,342.400 307.045,342.400 306.818 C 342.400 306.592,342.940 305.891,343.600 305.260 C 344.260 304.629,344.800 303.830,344.800 303.484 C 344.800 303.137,345.151 302.743,345.580 302.606 C 346.008 302.470,346.480 301.979,346.627 301.513 C 346.775 301.048,347.324 300.239,347.848 299.716 C 348.372 299.192,348.800 298.568,348.800 298.329 C 348.800 298.090,349.134 297.603,349.543 297.247 C 349.951 296.891,350.413 296.195,350.570 295.700 C 350.726 295.205,351.022 294.800,351.227 294.800 C 351.432 294.800,351.600 294.530,351.600 294.200 C 351.600 293.870,351.760 293.600,351.957 293.600 C 352.153 293.600,352.426 293.150,352.564 292.600 C 352.702 292.050,352.992 291.600,353.208 291.600 C 353.423 291.600,353.600 291.330,353.600 291.000 C 353.600 290.670,353.769 290.400,353.975 290.400 C 354.182 290.400,354.472 289.590,354.621 288.600 C 354.769 287.610,355.050 286.800,355.245 286.800 C 355.440 286.800,355.600 286.530,355.600 286.200 C 355.600 285.870,355.760 285.600,355.957 285.600 C 356.153 285.600,356.426 285.150,356.564 284.600 C 356.772 283.773,357.056 283.600,358.208 283.600 C 358.973 283.600,359.600 283.443,359.600 283.251 C 359.600 283.059,360.320 282.787,361.200 282.646 C 362.080 282.506,362.800 282.213,362.800 281.995 C 362.800 281.778,363.160 281.600,363.600 281.600 C 364.040 281.600,364.400 281.440,364.400 281.243 C 364.400 281.047,364.838 280.777,365.373 280.642 C 365.909 280.508,366.458 280.048,366.594 279.620 C 366.730 279.191,367.228 278.718,367.702 278.568 C 368.713 278.247,369.600 277.434,369.600 276.829 C 369.600 276.593,369.768 276.400,369.973 276.400 C 370.178 276.400,370.457 276.049,370.594 275.620 C 370.730 275.192,371.173 274.736,371.579 274.607 C 372.026 274.465,372.418 273.828,372.576 272.986 C 372.719 272.224,373.008 271.600,373.218 271.600 C 373.428 271.600,373.600 271.345,373.600 271.033 C 373.600 270.722,373.825 270.392,374.100 270.300 C 374.476 270.175,374.600 268.311,374.600 262.800 C 374.600 257.290,374.476 255.426,374.100 255.300 C 373.825 255.208,373.600 254.698,373.600 254.167 C 373.600 253.635,373.443 253.200,373.250 253.200 C 373.058 253.200,372.787 252.636,372.649 251.946 C 372.511 251.257,372.065 250.402,371.656 250.046 C 371.248 249.691,370.789 249.004,370.637 248.520 C 370.484 248.037,370.017 247.533,369.600 247.400 C 369.183 247.267,368.733 246.817,368.600 246.400 C 368.467 245.983,368.017 245.533,367.600 245.400 C 367.183 245.267,366.730 244.808,366.594 244.380 C 366.457 243.951,365.993 243.600,365.560 243.600 C 365.128 243.600,364.671 243.330,364.545 243.000 C 364.418 242.670,363.974 242.400,363.557 242.400 C 363.141 242.400,362.800 242.222,362.800 242.005 C 362.800 241.787,362.080 241.494,361.200 241.354 C 360.320 241.213,359.600 240.941,359.600 240.749 C 359.600 240.557,358.880 240.400,358.000 240.400 C 357.120 240.400,356.400 240.220,356.400 240.000 C 356.400 239.780,355.500 239.600,354.400 239.600 C 352.889 239.600,352.400 239.453,352.400 239.000 C 352.400 238.670,352.220 238.400,352.000 238.400 C 351.780 238.400,351.600 237.950,351.600 237.400 C 351.600 236.850,351.428 236.400,351.218 236.400 C 351.008 236.400,350.718 235.770,350.574 235.000 C 350.429 234.230,350.151 233.600,349.955 233.600 C 349.760 233.600,349.600 233.330,349.600 233.000 C 349.600 232.670,349.428 232.400,349.218 232.400 C 349.008 232.400,348.718 231.770,348.574 231.000 C 348.429 230.230,348.151 229.600,347.955 229.600 C 347.760 229.600,347.600 229.150,347.600 228.600 C 347.600 228.050,347.434 227.600,347.232 227.600 C 347.029 227.600,346.745 227.060,346.600 226.400 C 346.455 225.740,346.171 225.200,345.968 225.200 C 345.766 225.200,345.600 224.840,345.600 224.400 C 345.600 223.960,345.434 223.600,345.232 223.600 C 345.029 223.600,344.745 223.060,344.600 222.400 C 344.455 221.740,344.171 221.200,343.968 221.200 C 343.766 221.200,343.600 220.840,343.600 220.400 C 343.600 219.960,343.434 219.600,343.232 219.600 C 343.029 219.600,342.745 219.060,342.600 218.400 C 342.455 217.740,342.171 217.200,341.968 217.200 C 341.766 217.200,341.600 216.840,341.600 216.400 C 341.600 215.960,341.434 215.600,341.232 215.600 C 341.029 215.600,340.745 215.060,340.600 214.400 C 340.455 213.740,340.171 213.200,339.968 213.200 C 339.766 213.200,339.600 212.840,339.600 212.400 C 339.600 211.960,339.434 211.600,339.232 211.600 C 339.029 211.600,338.745 211.060,338.600 210.400 C 338.455 209.740,338.171 209.200,337.968 209.200 C 337.766 209.200,337.600 208.840,337.600 208.400 C 337.600 207.960,337.422 207.600,337.205 207.600 C 336.987 207.600,336.694 206.880,336.554 206.000 C 336.413 205.120,336.141 204.400,335.949 204.400 C 335.757 204.400,335.600 204.130,335.600 203.800 C 335.600 203.470,335.440 203.200,335.245 203.200 C 335.049 203.200,334.771 202.570,334.626 201.800 C 334.482 201.030,334.192 200.400,333.982 200.400 C 333.772 200.400,333.600 199.950,333.600 199.400 C 333.600 198.850,333.422 198.400,333.205 198.400 C 332.987 198.400,332.694 197.680,332.554 196.800 C 332.413 195.920,332.141 195.200,331.949 195.200 C 331.757 195.200,331.600 194.840,331.600 194.400 C 331.600 193.960,331.437 193.600,331.238 193.600 C 331.038 193.600,330.751 192.700,330.600 191.600 C 330.449 190.500,330.162 189.600,329.962 189.600 C 329.763 189.600,329.600 189.150,329.600 188.600 C 329.600 188.050,329.437 187.600,329.238 187.600 C 329.038 187.600,328.751 186.700,328.600 185.600 C 328.449 184.500,328.162 183.600,327.962 183.600 C 327.763 183.600,327.600 183.150,327.600 182.600 C 327.600 182.050,327.441 181.600,327.246 181.600 C 327.051 181.600,326.768 180.610,326.617 179.400 C 326.466 178.190,326.175 177.200,325.971 177.200 C 325.767 177.200,325.600 176.570,325.600 175.800 C 325.600 175.030,325.436 174.400,325.236 174.400 C 325.036 174.400,324.744 172.870,324.589 171.000 C 324.433 169.130,324.147 167.600,323.953 167.600 C 323.759 167.600,323.600 166.625,323.600 165.433 C 323.600 164.056,323.418 163.206,323.100 163.100 C 322.712 162.971,322.600 159.591,322.600 148.000 C 322.600 136.409,322.712 133.029,323.100 132.900 C 323.410 132.797,323.600 131.984,323.600 130.767 C 323.600 129.685,323.757 128.800,323.948 128.800 C 324.140 128.800,324.424 127.180,324.578 125.200 C 324.733 123.220,325.027 121.600,325.230 121.600 C 325.434 121.600,325.600 120.970,325.600 120.200 C 325.600 119.430,325.766 118.800,325.968 118.800 C 326.171 118.800,326.462 117.630,326.615 116.200 C 326.768 114.770,327.052 113.600,327.247 113.600 C 327.441 113.600,327.600 113.150,327.600 112.600 C 327.600 112.050,327.757 111.600,327.948 111.600 C 328.140 111.600,328.419 110.520,328.568 109.200 C 328.718 107.880,329.011 106.800,329.220 106.800 C 329.429 106.800,329.600 106.350,329.600 105.800 C 329.600 105.250,329.757 104.800,329.949 104.800 C 330.141 104.800,330.413 104.080,330.554 103.200 C 330.694 102.320,330.987 101.600,331.205 101.600 C 331.422 101.600,331.600 101.150,331.600 100.600 C 331.600 100.050,331.757 99.600,331.949 99.600 C 332.141 99.600,332.413 98.880,332.554 98.000 C 332.694 97.120,332.987 96.400,333.205 96.400 C 333.422 96.400,333.600 95.950,333.600 95.400 C 333.600 94.850,333.760 94.400,333.955 94.400 C 334.151 94.400,334.429 93.770,334.574 93.000 C 334.718 92.230,335.008 91.600,335.218 91.600 C 335.428 91.600,335.600 91.150,335.600 90.600 C 335.600 90.050,335.772 89.600,335.982 89.600 C 336.192 89.600,336.482 88.970,336.626 88.200 C 336.771 87.430,337.049 86.800,337.245 86.800 C 337.440 86.800,337.600 86.530,337.600 86.200 C 337.600 85.870,337.778 85.600,337.995 85.600 C 338.213 85.600,338.506 84.880,338.646 84.000 C 338.787 83.120,339.059 82.400,339.251 82.400 C 339.443 82.400,339.600 82.040,339.600 81.600 C 339.600 81.160,339.760 80.800,339.957 80.800 C 340.153 80.800,340.435 80.316,340.583 79.724 C 340.732 79.132,341.201 78.346,341.626 77.977 C 342.051 77.609,342.511 76.743,342.649 76.054 C 342.787 75.364,343.058 74.800,343.250 74.800 C 343.443 74.800,343.600 74.530,343.600 74.200 C 343.600 73.870,343.772 73.600,343.982 73.600 C 344.192 73.600,344.482 72.970,344.626 72.200 C 344.771 71.430,345.049 70.800,345.245 70.800 C 345.440 70.800,345.600 70.530,345.600 70.200 C 345.600 69.870,345.772 69.600,345.982 69.600 C 346.192 69.600,346.482 68.970,346.626 68.200 C 346.771 67.430,347.049 66.800,347.245 66.800 C 347.440 66.800,347.600 66.530,347.600 66.200 C 347.600 65.870,347.772 65.600,347.982 65.600 C 348.192 65.600,348.482 64.970,348.626 64.200 C 348.771 63.430,349.049 62.800,349.245 62.800 C 349.440 62.800,349.600 62.350,349.600 61.800 C 349.600 61.250,349.766 60.800,349.968 60.800 C 350.171 60.800,350.462 59.630,350.615 58.200 C 350.768 56.770,351.052 55.600,351.247 55.600 C 351.441 55.600,351.600 53.260,351.600 50.400 C 351.600 47.540,351.443 45.200,351.252 45.200 C 351.061 45.200,350.808 44.351,350.691 43.313 C 350.574 42.275,350.281 41.360,350.039 41.280 C 349.798 41.199,349.600 40.788,349.600 40.367 C 349.600 39.945,349.440 39.600,349.243 39.600 C 349.047 39.600,348.771 39.139,348.629 38.574 C 348.324 37.356,342.342 31.200,341.464 31.200 C 341.128 31.200,340.746 30.859,340.613 30.442 C 340.464 29.972,339.845 29.585,338.986 29.424 C 338.224 29.281,337.600 28.992,337.600 28.782 C 337.600 28.572,337.330 28.400,337.000 28.400 C 336.670 28.400,336.400 28.231,336.400 28.025 C 336.400 27.818,335.590 27.528,334.600 27.379 C 333.610 27.231,332.800 26.950,332.800 26.755 C 332.800 26.560,332.350 26.400,331.800 26.400 C 331.250 26.400,330.800 26.237,330.800 26.038 C 330.800 25.838,329.900 25.551,328.800 25.400 C 327.700 25.249,326.800 24.962,326.800 24.762 C 326.800 24.563,326.260 24.400,325.600 24.400 C 324.940 24.400,324.400 24.241,324.400 24.047 C 324.400 23.853,322.870 23.567,321.000 23.411 C 319.130 23.256,317.600 22.964,317.600 22.764 C 317.600 22.564,316.445 22.400,315.033 22.400 C 313.482 22.400,312.407 22.221,312.316 21.948 C 312.161 21.484,284.978 21.141,274.500 21.470 M306.400 24.841 C 314.889 25.469,322.626 26.866,328.707 28.867 C 349.370 35.666,353.687 48.952,342.008 69.800 C 321.841 105.804,314.666 142.244,321.649 173.200 C 325.056 188.302,328.948 198.507,339.497 220.000 C 346.181 233.617,349.369 240.419,349.128 240.544 C 349.057 240.581,348.010 240.940,346.800 241.343 C 335.503 245.105,329.318 255.407,331.830 266.275 C 333.990 275.622,341.343 282.558,350.056 283.469 C 351.359 283.605,352.524 283.876,352.644 284.072 C 353.358 285.227,347.334 295.017,341.245 302.600 C 319.530 329.639,291.482 350.247,258.200 363.615 C 227.443 375.968,191.238 378.993,160.800 371.753 C 156.320 370.688,147.527 368.206,146.200 367.632 C 145.760 367.442,143.330 366.517,140.800 365.576 C 100.598 350.630,62.458 313.463,47.607 274.760 C 47.151 273.572,46.617 272.240,46.421 271.800 C 44.231 266.892,40.235 253.653,38.804 246.571 C 34.711 226.305,34.360 209.470,37.619 189.800 C 38.624 183.732,38.483 183.979,40.522 184.713 C 49.765 188.040,61.905 182.865,66.602 173.595 C 71.872 163.197,66.922 149.418,56.100 144.360 C 53.105 142.961,53.134 143.654,55.862 138.704 C 71.680 110.004,100.264 79.796,124.800 65.849 C 127.032 64.580,139.032 58.610,141.400 57.590 C 141.840 57.401,143.280 56.763,144.600 56.174 C 148.491 54.437,160.944 49.663,167.200 47.511 C 174.614 44.960,179.187 43.538,191.400 39.985 C 199.507 37.626,215.258 33.835,224.600 31.993 C 245.242 27.924,261.435 25.709,277.200 24.798 C 290.708 24.018,295.367 24.025,306.400 24.841 M290.000 41.679 C 273.008 46.501,267.626 65.800,279.822 78.177 C 294.777 93.355,321.094 78.609,315.833 57.997 C 312.849 46.308,300.710 38.639,290.000 41.679 M299.254 44.049 C 304.670 45.211,309.832 49.585,312.175 55.000 C 312.556 55.880,313.064 56.960,313.304 57.400 C 314.181 59.005,314.169 66.368,313.285 68.867 C 312.007 72.482,306.950 78.800,305.335 78.800 C 305.077 78.800,304.807 78.935,304.733 79.100 C 304.660 79.265,303.970 79.690,303.200 80.044 C 302.430 80.398,301.278 80.938,300.639 81.244 C 299.206 81.931,290.581 82.014,289.161 81.354 C 288.632 81.109,287.370 80.524,286.356 80.055 C 283.026 78.511,277.200 72.067,277.200 69.926 C 277.200 69.615,277.018 69.178,276.796 68.956 C 275.954 68.114,275.408 62.167,275.907 59.259 C 276.674 54.788,280.346 49.315,284.200 46.898 C 288.978 43.902,294.073 42.938,299.254 44.049 M144.005 127.093 C 139.011 128.036,137.886 136.497,142.445 138.823 C 144.883 140.067,292.001 139.850,293.666 138.600 C 297.140 135.994,296.825 129.743,293.118 127.719 C 291.856 127.031,147.546 126.424,144.005 127.093 M291.737 129.644 C 294.749 131.016,294.461 135.695,291.283 137.023 C 289.092 137.938,145.897 137.886,144.059 136.970 C 141.197 135.542,141.251 130.763,144.143 129.597 C 145.486 129.055,290.546 129.101,291.737 129.644 M48.735 145.151 C 49.168 145.426,49.100 145.863,48.382 147.445 C 47.893 148.520,47.084 150.300,46.583 151.400 C 43.538 158.094,41.251 164.465,38.623 173.574 C 36.673 180.333,36.587 180.401,33.732 177.382 C 25.036 168.186,26.559 154.291,36.945 148.056 C 41.102 145.560,47.063 144.092,48.735 145.151 M54.040 146.063 C 63.688 149.352,69.229 163.318,64.504 172.436 C 61.189 178.834,51.575 184.539,45.929 183.460 C 38.235 181.990,38.169 181.869,40.785 174.000 C 40.968 173.450,41.420 171.920,41.790 170.600 C 42.159 169.280,42.615 167.840,42.802 167.400 C 42.989 166.960,43.450 165.610,43.824 164.400 C 44.199 163.190,44.624 162.020,44.769 161.800 C 44.915 161.580,45.273 160.680,45.566 159.800 C 46.214 157.854,48.056 153.580,50.306 148.800 C 51.959 145.289,51.898 145.333,54.040 146.063 M103.600 189.082 C 99.550 190.563,98.749 196.781,102.194 200.000 L 103.264 201.000 176.532 201.100 C 249.445 201.200,249.806 201.197,251.123 200.392 C 254.771 198.163,254.757 191.922,251.100 189.662 L 249.706 188.800 176.953 188.832 C 136.939 188.849,103.930 188.962,103.600 189.082 M250.580 192.538 C 251.874 194.235,251.874 195.765,250.580 197.462 L 249.559 198.800 176.961 198.800 L 104.362 198.800 103.381 197.742 C 101.981 196.231,102.015 193.694,103.455 192.255 L 104.509 191.200 177.034 191.200 L 249.559 191.200 250.580 192.538 M359.000 243.922 C 368.944 247.003,374.949 260.558,370.448 269.765 C 368.170 274.427,362.579 279.284,358.451 280.189 L 357.103 280.485 357.315 279.142 C 357.431 278.404,357.744 276.450,358.009 274.800 C 358.544 271.467,358.319 259.817,357.680 257.800 C 357.471 257.140,357.075 255.610,356.801 254.400 C 356.230 251.883,354.161 245.448,353.564 244.332 C 352.791 242.888,355.101 242.713,359.000 243.922 M351.799 246.100 C 353.207 249.923,353.418 250.568,354.190 253.400 C 354.550 254.720,355.004 256.340,355.200 257.000 C 356.541 261.527,356.533 275.509,355.187 278.024 C 354.974 278.422,354.800 279.091,354.800 279.512 C 354.800 280.785,353.418 281.723,351.918 281.468 C 347.947 280.794,346.687 280.438,344.685 279.425 C 340.815 277.467,335.200 271.337,335.200 269.070 C 335.200 268.727,335.039 268.348,334.842 268.226 C 334.052 267.738,333.458 261.349,333.934 258.465 C 334.803 253.207,339.179 247.422,344.000 245.159 C 350.111 242.291,350.408 242.327,351.799 246.100 M141.600 251.081 C 137.548 252.573,136.748 258.780,140.194 262.000 L 141.264 263.000 216.800 263.000 L 292.336 263.000 293.419 262.000 C 296.304 259.338,296.304 254.662,293.419 252.000 L 292.336 251.000 217.268 250.930 C 175.981 250.891,141.930 250.959,141.600 251.081 M291.906 254.100 C 293.724 256.035,293.692 258.522,291.828 260.081 C 291.049 260.732,286.559 260.774,216.681 260.787 L 142.362 260.800 141.381 259.742 C 140.663 258.967,140.400 258.232,140.400 257.000 C 140.400 255.768,140.663 255.033,141.381 254.258 L 142.362 253.200 216.711 253.200 L 291.061 253.200 291.906 254.100 M172.000 317.949 C 155.107 322.355,149.658 342.254,162.006 354.447 C 178.048 370.287,204.348 353.740,197.329 332.223 C 193.871 321.620,182.497 315.211,172.000 317.949 M180.227 320.020 C 186.981 321.214,191.704 325.418,195.260 333.400 C 197.434 338.281,195.640 346.971,191.539 351.420 C 189.775 353.333,184.870 356.800,183.926 356.800 C 183.615 356.800,183.189 356.971,182.979 357.181 C 182.769 357.391,181.293 357.764,179.699 358.012 C 176.689 358.479,171.438 357.998,170.621 357.181 C 170.411 356.971,169.997 356.800,169.701 356.800 C 167.431 356.800,161.743 351.389,159.788 347.369 C 152.904 333.218,164.805 317.292,180.227 320.020 " stroke="none" fill="#040405" fill-rule="evenodd"></path><path id="path4" d="M294.305 43.883 C 294.802 43.979,295.522 43.975,295.905 43.875 C 296.287 43.775,295.880 43.696,295.000 43.701 C 294.120 43.705,293.807 43.787,294.305 43.883 M288.986 44.754 C 286.671 45.588,285.063 46.397,285.283 46.616 C 285.366 46.699,286.326 46.330,287.417 45.796 C 288.508 45.262,289.760 44.817,290.200 44.806 C 290.640 44.796,291.270 44.613,291.600 44.400 C 292.610 43.747,291.282 43.927,288.986 44.754 M298.400 44.370 C 298.730 44.600,299.324 44.791,299.720 44.794 C 300.116 44.797,300.988 45.083,301.657 45.429 C 302.327 45.776,302.967 45.966,303.080 45.853 C 303.348 45.585,300.896 44.564,299.157 44.220 C 298.155 44.022,297.957 44.061,298.400 44.370 M282.917 48.098 C 281.084 49.614,277.795 53.529,278.100 53.833 C 278.215 53.948,278.701 53.407,279.181 52.630 C 279.661 51.854,281.152 50.224,282.495 49.009 C 285.160 46.598,285.426 46.023,282.917 48.098 M305.243 47.300 C 305.339 47.355,306.474 48.390,307.764 49.600 C 309.495 51.224,309.861 51.453,309.163 50.477 C 308.233 49.179,305.937 47.200,305.360 47.200 C 305.199 47.200,305.146 47.245,305.243 47.300 M311.139 54.200 C 311.770 55.520,312.487 57.050,312.733 57.600 C 313.163 58.565,313.170 58.557,312.933 57.400 C 312.654 56.042,311.573 53.791,310.627 52.600 C 310.278 52.160,310.508 52.880,311.139 54.200 M276.200 58.000 C 276.048 58.691,276.014 59.347,276.124 59.457 C 276.234 59.567,276.448 59.091,276.600 58.400 C 276.752 57.709,276.786 57.053,276.676 56.943 C 276.566 56.833,276.352 57.309,276.200 58.000 M313.392 63.323 C 313.396 65.920,313.517 67.630,313.660 67.123 C 313.993 65.941,313.984 61.361,313.645 59.800 C 313.501 59.140,313.388 60.725,313.392 63.323 M275.693 62.000 C 275.693 62.770,275.775 63.085,275.876 62.700 C 275.976 62.315,275.976 61.685,275.876 61.300 C 275.775 60.915,275.693 61.230,275.693 62.000 M276.068 65.200 C 276.062 65.750,276.211 66.560,276.400 67.000 L 276.744 67.800 276.732 67.000 C 276.726 66.560,276.576 65.750,276.400 65.200 L 276.080 64.200 276.068 65.200 M277.029 68.800 C 277.176 69.350,277.464 70.070,277.667 70.400 C 277.925 70.817,277.957 70.695,277.771 70.000 C 277.624 69.450,277.336 68.730,277.133 68.400 C 276.875 67.983,276.843 68.105,277.029 68.800 M312.467 69.580 C 312.233 70.251,312.127 70.800,312.231 70.800 C 312.501 70.800,313.256 68.722,313.057 68.524 C 312.967 68.433,312.701 68.908,312.467 69.580 M278.349 71.800 C 278.565 72.240,279.034 72.960,279.393 73.400 L 280.044 74.200 279.651 73.400 C 279.435 72.960,278.966 72.240,278.607 71.800 L 277.956 71.000 278.349 71.800 M310.226 73.388 C 309.397 74.591,308.082 76.076,307.302 76.688 C 305.101 78.415,304.143 79.289,304.800 78.968 C 306.898 77.946,312.492 71.959,311.902 71.369 C 311.809 71.276,311.055 72.184,310.226 73.388 M281.600 76.154 C 283.432 78.117,286.313 80.220,286.675 79.858 C 286.785 79.749,286.283 79.353,285.560 78.980 C 284.838 78.606,283.246 77.383,282.023 76.263 L 279.800 74.225 281.600 76.154 M287.400 80.303 C 287.620 80.520,288.340 80.812,289.000 80.954 C 290.377 81.249,289.615 80.677,288.000 80.203 C 287.343 80.011,287.137 80.045,287.400 80.303 M300.600 80.602 L 299.400 81.167 300.600 80.932 C 301.260 80.803,301.971 80.540,302.180 80.348 C 302.750 79.826,301.987 79.948,300.600 80.602 M291.200 81.636 C 292.440 81.989,296.589 81.994,298.200 81.646 C 298.860 81.503,297.330 81.378,294.800 81.369 C 292.270 81.359,290.650 81.479,291.200 81.636 M181.132 129.900 C 201.444 129.957,234.564 129.957,254.732 129.900 C 274.899 129.843,258.280 129.796,217.800 129.796 C 177.320 129.796,160.819 129.843,181.132 129.900 M292.200 130.800 C 292.598 131.240,292.992 131.600,293.076 131.600 C 293.160 131.600,293.035 131.240,292.800 130.800 C 292.565 130.360,292.170 130.000,291.924 130.000 C 291.678 130.000,291.802 130.360,292.200 130.800 M142.243 131.833 C 141.738 133.148,142.032 134.793,142.965 135.878 L 143.931 137.000 217.754 137.000 L 291.578 137.000 292.489 136.015 L 293.400 135.030 292.458 135.815 C 291.529 136.589,290.465 136.600,217.772 136.600 C 134.108 136.600,142.573 136.985,142.629 133.185 C 142.661 131.036,142.613 130.868,142.243 131.833 M293.301 133.400 C 293.305 134.280,293.387 134.593,293.483 134.095 C 293.579 133.598,293.575 132.878,293.475 132.495 C 293.375 132.113,293.296 132.520,293.301 133.400 M51.745 146.500 C 50.898 147.699,49.938 149.671,50.115 149.848 C 50.221 149.954,50.761 149.132,51.315 148.021 C 52.298 146.047,52.454 145.495,51.745 146.500 M59.608 150.413 C 61.043 151.836,62.543 153.690,62.942 154.532 C 63.342 155.375,63.764 155.970,63.880 155.854 C 64.446 155.287,60.509 150.292,58.238 148.696 C 57.557 148.218,58.174 148.990,59.608 150.413 M48.997 151.857 C 45.173 160.934,44.568 162.591,45.226 162.184 C 45.432 162.057,45.603 161.738,45.608 161.476 C 45.612 161.214,46.595 158.668,47.792 155.817 C 48.988 152.967,49.896 150.562,49.807 150.474 C 49.719 150.386,49.354 151.008,48.997 151.857 M64.467 157.620 C 64.701 158.292,64.967 158.767,65.057 158.676 C 65.256 158.478,64.501 156.400,64.231 156.400 C 64.127 156.400,64.233 156.949,64.467 157.620 M65.280 160.000 C 65.280 160.550,65.424 161.450,65.600 162.000 L 65.920 163.000 65.920 162.000 C 65.920 161.450,65.776 160.550,65.600 160.000 L 65.280 159.000 65.280 160.000 M43.240 166.640 C 42.697 168.608,42.977 168.888,43.600 167.000 C 43.864 166.201,43.985 165.452,43.869 165.336 C 43.753 165.220,43.470 165.807,43.240 166.640 M65.400 168.000 C 65.248 168.691,65.214 169.347,65.324 169.457 C 65.434 169.567,65.648 169.091,65.800 168.400 C 65.952 167.709,65.986 167.053,65.876 166.943 C 65.766 166.833,65.552 167.309,65.400 168.000 M64.450 171.050 C 64.186 171.629,64.062 172.195,64.174 172.307 C 64.286 172.419,64.568 172.011,64.800 171.400 C 65.349 169.957,65.073 169.682,64.450 171.050 M41.240 173.040 C 41.010 173.873,40.894 174.627,40.982 174.715 C 41.070 174.803,41.330 174.193,41.560 173.360 C 41.790 172.527,41.906 171.773,41.818 171.685 C 41.730 171.597,41.470 172.207,41.240 173.040 M62.819 174.170 C 62.353 174.923,60.858 176.571,59.496 177.832 C 58.134 179.093,57.377 179.934,57.813 179.700 C 58.829 179.156,62.916 174.880,63.547 173.700 C 64.297 172.298,63.763 172.643,62.819 174.170 M40.449 175.600 C 40.416 175.930,40.289 176.650,40.167 177.200 C 39.975 178.064,40.007 178.103,40.399 177.488 C 40.648 177.097,40.775 176.377,40.681 175.888 C 40.586 175.400,40.482 175.270,40.449 175.600 M39.363 179.805 C 39.102 180.843,39.737 182.010,40.549 181.987 C 40.797 181.980,40.677 181.729,40.282 181.430 C 39.763 181.037,39.636 180.595,39.825 179.843 C 39.969 179.269,39.981 178.800,39.851 178.800 C 39.721 178.800,39.502 179.252,39.363 179.805 M42.000 182.479 C 43.356 183.089,50.778 183.110,51.800 182.507 C 52.468 182.113,52.336 182.081,51.000 182.317 C 48.945 182.680,45.100 182.679,42.800 182.315 C 41.283 182.074,41.157 182.100,42.000 182.479 M104.662 191.500 C 104.560 191.665,136.869 191.754,176.460 191.698 C 253.597 191.588,249.637 191.480,250.617 193.731 C 250.968 194.539,251.174 194.735,251.184 194.269 C 251.193 193.867,250.674 193.012,250.031 192.369 L 248.862 191.200 176.854 191.200 C 137.250 191.200,104.764 191.335,104.662 191.500 M250.800 195.752 C 250.800 196.128,250.358 196.878,249.818 197.418 L 248.836 198.400 176.799 198.400 L 104.762 198.400 103.725 197.300 C 102.867 196.389,102.769 196.353,103.153 197.091 C 104.065 198.838,102.408 198.800,177.098 198.800 C 248.084 198.800,249.060 198.789,249.893 198.014 C 250.799 197.170,251.423 195.690,251.037 195.303 C 250.906 195.173,250.800 195.375,250.800 195.752 M348.000 243.621 C 347.564 243.918,347.793 243.962,348.838 243.782 C 350.357 243.520,350.395 243.562,351.372 246.557 C 351.508 246.974,351.720 247.214,351.843 247.090 C 353.140 245.793,349.558 242.559,348.000 243.621 M344.862 244.844 C 343.907 245.291,343.208 245.741,343.309 245.842 C 343.410 245.944,344.372 245.575,345.447 245.024 C 347.782 243.824,347.333 243.686,344.862 244.844 M340.214 248.091 C 337.852 250.196,335.539 253.372,335.036 255.200 C 334.885 255.750,335.420 254.991,336.226 253.513 C 337.593 251.004,340.377 247.924,342.201 246.903 C 342.637 246.660,342.893 246.359,342.770 246.236 C 342.646 246.113,341.496 246.948,340.214 248.091 M352.229 248.800 C 352.376 249.350,352.664 250.070,352.867 250.400 C 353.125 250.817,353.157 250.695,352.971 250.000 C 352.824 249.450,352.536 248.730,352.333 248.400 C 352.075 247.983,352.043 248.105,352.229 248.800 M353.234 251.800 C 353.222 252.240,353.387 252.870,353.600 253.200 C 354.114 253.995,354.114 252.996,353.600 251.800 L 353.256 251.000 353.234 251.800 M142.662 253.500 C 142.560 253.665,175.444 253.749,215.738 253.686 C 256.032 253.624,289.599 253.679,290.330 253.810 C 291.928 254.095,292.939 256.005,292.542 257.989 C 292.022 260.588,297.924 260.400,216.692 260.400 L 142.762 260.400 141.725 259.300 C 140.867 258.389,140.769 258.353,141.153 259.091 C 142.066 260.839,140.335 260.800,216.951 260.800 L 290.755 260.800 291.844 259.863 C 293.421 258.507,293.421 255.493,291.844 254.137 L 290.755 253.200 216.801 253.200 C 176.127 253.200,142.764 253.335,142.662 253.500 M354.249 255.800 C 354.642 258.173,355.217 259.352,354.932 257.200 C 354.800 256.210,354.533 255.130,354.338 254.800 C 354.118 254.427,354.084 254.805,354.249 255.800 M334.200 257.600 C 334.048 258.291,334.014 258.947,334.124 259.057 C 334.234 259.167,334.448 258.691,334.600 258.000 C 334.752 257.309,334.786 256.653,334.676 256.543 C 334.566 256.433,334.352 256.909,334.200 257.600 M355.270 260.600 C 355.257 261.260,355.395 262.520,355.577 263.400 L 355.908 265.000 355.907 263.400 C 355.906 262.520,355.768 261.260,355.600 260.600 L 355.295 259.400 355.270 260.600 M334.068 264.200 C 334.062 264.860,334.211 265.760,334.400 266.200 C 334.870 267.294,334.870 265.467,334.400 264.000 C 334.088 263.025,334.079 263.030,334.068 264.200 M335.021 268.000 C 335.909 271.297,340.090 276.607,343.151 278.326 C 345.360 279.566,345.269 279.151,343.046 277.848 C 340.595 276.412,337.838 273.205,336.169 269.849 C 335.390 268.282,334.873 267.450,335.021 268.000 M355.385 273.385 C 355.230 274.623,355.200 275.734,355.319 275.852 C 355.437 275.970,355.661 275.054,355.815 273.815 C 355.970 272.577,356.000 271.466,355.881 271.348 C 355.763 271.230,355.539 272.146,355.385 273.385 M354.565 277.900 C 354.002 281.023,353.304 281.264,348.017 280.161 C 347.255 280.003,347.152 280.048,347.604 280.341 C 347.937 280.556,349.482 280.858,351.037 281.011 L 353.866 281.290 354.308 280.145 C 354.876 278.674,355.327 276.400,355.050 276.400 C 354.932 276.400,354.714 277.075,354.565 277.900 M172.800 320.400 L 171.800 320.720 172.800 320.720 C 173.350 320.720,174.250 320.576,174.800 320.400 L 175.800 320.080 174.800 320.080 C 174.250 320.080,173.350 320.224,172.800 320.400 M179.200 320.400 C 179.750 320.576,180.650 320.720,181.200 320.720 L 182.200 320.720 181.200 320.400 C 180.650 320.224,179.750 320.080,179.200 320.080 L 178.200 320.080 179.200 320.400 M169.207 321.631 C 166.723 322.758,163.573 325.209,161.964 327.269 C 160.977 328.531,161.326 328.281,163.250 326.345 C 165.087 324.496,166.787 323.252,168.844 322.251 C 171.971 320.730,172.252 320.250,169.207 321.631 M184.800 322.042 C 187.728 323.469,191.794 327.316,192.949 329.749 C 193.345 330.583,193.766 331.167,193.886 331.048 C 195.183 329.750,186.938 322.027,183.200 321.038 C 182.650 320.893,183.370 321.344,184.800 322.042 M159.580 330.839 C 159.120 331.740,158.842 332.575,158.961 332.694 C 159.080 332.813,159.363 332.424,159.589 331.829 C 159.815 331.233,160.187 330.398,160.414 329.973 C 160.642 329.548,160.735 329.200,160.622 329.200 C 160.509 329.200,160.040 329.937,159.580 330.839 M194.203 332.400 C 194.677 334.015,195.249 334.777,194.954 333.400 C 194.812 332.740,194.520 332.020,194.303 331.800 C 194.045 331.537,194.011 331.743,194.203 332.400 M158.200 334.400 C 158.048 335.091,158.014 335.747,158.124 335.857 C 158.234 335.967,158.448 335.491,158.600 334.800 C 158.752 334.109,158.786 333.453,158.676 333.343 C 158.566 333.233,158.352 333.709,158.200 334.400 M195.270 335.600 C 195.257 336.150,195.395 337.320,195.577 338.200 L 195.908 339.800 195.907 338.400 C 195.905 336.635,195.309 334.012,195.270 335.600 M195.418 341.926 C 195.253 343.095,195.213 344.146,195.329 344.262 C 195.614 344.547,196.131 340.987,195.900 340.325 C 195.800 340.036,195.582 340.757,195.418 341.926 M158.080 341.200 C 158.080 341.750,158.224 342.650,158.400 343.200 L 158.720 344.200 158.720 343.200 C 158.720 342.650,158.576 341.750,158.400 341.200 L 158.080 340.200 158.080 341.200 M159.018 345.300 C 159.168 345.795,159.455 346.376,159.656 346.591 C 159.857 346.806,159.819 346.401,159.572 345.691 C 159.065 344.238,158.597 343.908,159.018 345.300 M193.846 347.012 C 193.289 348.229,191.796 350.344,190.528 351.712 L 188.224 354.200 190.343 352.200 C 192.428 350.232,193.949 348.066,194.765 345.900 C 195.481 344.003,194.904 344.701,193.846 347.012 M161.216 349.600 C 161.913 350.944,165.546 354.419,167.237 355.357 C 168.945 356.305,168.411 355.776,165.700 353.835 C 164.545 353.008,163.593 352.212,163.583 352.066 C 163.574 351.920,162.921 351.080,162.132 350.200 C 161.178 349.136,160.871 348.935,161.216 349.600 M186.697 354.766 C 185.053 355.819,184.825 356.191,186.275 355.454 C 186.976 355.097,187.661 354.624,187.798 354.403 C 188.119 353.884,188.023 353.915,186.697 354.766 M168.944 356.309 C 169.078 356.527,169.654 356.794,170.224 356.903 C 171.447 357.136,171.021 356.617,169.650 356.202 C 169.058 356.023,168.792 356.063,168.944 356.309 M183.000 356.614 C 182.340 356.917,182.070 357.166,182.400 357.168 C 182.730 357.170,183.450 356.914,184.000 356.600 C 185.265 355.877,184.589 355.887,183.000 356.614 M172.400 357.600 C 172.950 357.776,173.940 357.917,174.600 357.913 L 175.800 357.905 174.600 357.600 C 173.940 357.432,172.950 357.291,172.400 357.287 L 171.400 357.280 172.400 357.600 M179.200 357.600 L 178.200 357.920 179.200 357.932 C 179.750 357.938,180.560 357.789,181.000 357.600 L 181.800 357.256 181.000 357.268 C 180.560 357.274,179.750 357.424,179.200 357.600 " stroke="none" fill="#848484" fill-rule="evenodd"></path></g></svg>